<?xml version="1.0" encoding="UTF-8" standalone="no"?>
<!DOCTYPE svg PUBLIC "-//W3C//DTD SVG 1.1//EN" "http://www.w3.org/Graphics/SVG/1.1/DTD/svg11.dtd">
<svg width="100%" height="100%" viewBox="0 0 98 98" version="1.1" xmlns="http://www.w3.org/2000/svg" xmlns:xlink="http://www.w3.org/1999/xlink" xml:space="preserve" xmlns:serif="http://www.serif.com/" style="fill-rule:evenodd;clip-rule:evenodd;stroke-linejoin:round;stroke-miterlimit:2;">
    <g transform="matrix(1,0,0,1,13.165251,4.430257)">
        <path d="M63.995,62.221L54.92,58.55C54.75,58.53 54.58,58.52 54.42,58.52C54.17,58.52 53.92,58.54 53.68,58.59C53.47,58.61 53.23,58.67 52.97,58.76L52.97,55.06C54.81,53.87 55.51,50.82 56.61,45.44C56.75,44.74 56.9,44.03 57.05,43.32C58.4,40.32 60.39,37.53 62.33,34.83C65.67,30.17 69.12,25.35 68.76,19.68L68.53,18.85C64.76,11.47 59.72,6.76 53.13,4.44C51.15,3.73 49.37,3.35 47.94,3.05C47.35,2.93 46.84,2.82 46.41,2.71L46.26,2.68C42.59,2 38.62,1.37 34.53,1.37C32.79,1.37 31.18,1.48 29.58,1.71C27.57,2 25.52,2.93 23.35,3.92C21.02,4.98 18.61,6.07 16.5,6.22L15.98,6.32C11.31,7.86 9.79,10 8.56,11.73C8.47,11.85 8.39,11.97 8.3,12.1L8.09,12.46C6.56,15.79 6.18,19.2 6.95,22.62L7,22.78C7.57,24.6 8.25,26.37 8.9,28.07C10.2,31.46 11.42,34.67 11.92,38.26L12.18,39.02C12.68,39.9 13.06,41.24 13.48,42.66C14.33,45.6 15.39,49.25 18.23,52.15L18.24,52.44L18.24,56.47C18.24,56.47 7.7,61.56 4.64,63.83C3.09,64.98 1.06,67.79 4.78,70.14C7.64,71.95 16.74,76.71 16.71,76.98C16.39,80.22 17.5,83.14 18.55,84.37C20.27,86.4 23.09,87.56 26.3,87.56C29.37,87.56 32.39,86.49 34.39,84.71C34.89,84.26 35.32,83.78 35.67,83.29C36.03,83.79 36.45,84.27 36.95,84.71C38.94,86.49 41.97,87.56 45.04,87.56C48.25,87.56 51.07,86.4 52.79,84.37C53.92,83.04 55.14,80.66 54.51,76.94L54.4,76.33C54.46,76.33 55.887,75.051 55.887,75.051C55.887,75.051 55.786,75.116 55.887,75.051C69.457,66.291 67.516,63.553 64.225,62.309C64.148,62.28 64.071,62.251 63.995,62.221Z" style="fill:white;fill-rule:nonzero;"/>
    </g>
    <g transform="matrix(1,0,0,1,13.165251,4.430257)">
        <path d="M57.4,61.65C59.6,62.37 61.41,63.39 62.82,64.71C63.13,64.93 63.28,65.18 63.28,65.47C63.28,65.94 62.93,66.39 62.22,66.83C61.39,67.35 60.15,68.27 58.51,69.59C56.99,70.8 55.76,71.68 54.83,72.24C54.65,72.33 54.47,72.38 54.29,72.38C54.02,72.38 53.78,72.28 53.59,72.1C53.39,71.91 53.29,71.69 53.29,71.44C53.29,71.22 53.37,71.03 53.53,70.84C53.75,70.48 54.25,70.08 55.05,69.65C55.57,69.38 56.22,68.94 57,68.32C57.94,67.56 58.59,67.06 58.95,66.83C59.74,66.43 60.14,66.15 60.14,65.99C60.14,65.95 60.13,65.92 60.11,65.88C59.68,65.12 58.96,64.55 57.97,64.17C57.09,63.92 56.19,63.66 55.29,63.38C54.23,63.06 53.44,62.6 52.93,62C52.89,61.95 52.88,61.88 52.88,61.81C52.88,61.59 53.01,61.35 53.26,61.09C53.51,60.83 53.76,60.7 53.99,60.7C54.13,60.66 54.28,60.65 54.42,60.65C54.84,60.65 55.35,60.78 55.96,61.03C56.43,61.23 56.91,61.43 57.4,61.65ZM15.15,60.76C15.56,60.76 15.9,60.87 16.17,61.09C16.43,61.31 16.56,61.56 16.56,61.85C16.56,62.07 16.48,62.26 16.32,62.42C15.72,63.07 14.5,63.77 12.64,64.51C10.92,65.2 9.77,65.99 9.17,66.89C10.18,67.5 11.51,68.17 13.15,68.89C15.77,70.06 17.12,70.67 17.21,70.71C17.55,70.87 17.72,71.13 17.72,71.5C17.76,71.95 17.58,72.33 17.19,72.65C16.8,72.97 16.35,73.12 15.85,73.12C15.65,73.12 15.46,73.08 15.28,73.01C15.06,72.79 14.77,72.54 14.39,72.25C12.01,70.95 9.46,69.71 6.75,68.54C6.48,68.43 6.21,68.33 5.94,68.24C5.6,68.08 5.4,67.84 5.34,67.54C5.34,66.76 5.68,66.04 6.37,65.37C7.2,64.7 8.57,63.94 10.49,63.07C12.35,62.24 13.69,61.47 14.53,60.77C14.53,60.76 14.73,60.76 15.15,60.76Z" style="fill:rgb(91,69,56);fill-rule:nonzero;"/>
    </g>
    <g transform="matrix(1,0,0,1,13.165251,4.430257)">
        <path d="M32.14,60.72C31.69,60.07 31.27,59.61 30.89,59.34C30.51,59.07 30.07,58.94 29.56,58.94C29.38,58.94 29.22,58.97 29.09,59.02L26.09,60.06C25.92,60.12 25.72,60.14 25.5,60.14C25.1,60.14 24.78,60.05 24.54,59.86C24.29,59.68 23.99,59.31 23.64,58.76L22.81,59.31C23.33,60.06 23.78,60.56 24.14,60.8C24.51,61.05 24.97,61.17 25.54,61.17C25.79,61.17 26.04,61.13 26.28,61.06L29.03,60.06C29.21,59.99 29.41,59.95 29.62,59.95C29.97,59.95 30.26,60.02 30.47,60.17C30.68,60.31 30.98,60.64 31.36,61.16L32.14,60.72Z" style="fill:rgb(91,69,56);fill-rule:nonzero;"/>
    </g>
    <g transform="matrix(1,0,0,1,13.165251,4.430257)">
        <path d="M52.41,77.29C53.92,86.31 42.89,87.18 38.36,83.13C35.23,80.33 36.11,76.44 40.6,76.68C44.55,76.89 46.88,81.99 52.41,77.29Z" style="fill:rgb(91,69,56);"/>
    </g>
    <g transform="matrix(1,0,0,1,13.165251,4.430257)">
        <path d="M18.91,77.29C17.4,86.31 28.43,87.18 32.96,83.13C36.09,80.33 35.21,76.44 30.72,76.68C26.77,76.89 24.44,81.99 18.91,77.29Z" style="fill:rgb(91,69,56);"/>
    </g>
    <g transform="matrix(1,0,0,1,13.165251,4.430257)">
        <path d="M29.74,64.2C29.24,63.85 28.62,63.67 27.88,63.67C26.99,63.67 26.27,63.94 25.71,64.47C25.06,65.06 24.81,65.9 24.96,67C25.05,67.89 25.37,68.67 25.91,69.35C26.46,70.03 27.12,70.37 27.88,70.37C28.35,70.37 28.84,70.24 29.34,69.97C30.23,69.44 30.67,68.42 30.67,66.91C30.67,65.55 30.36,64.65 29.74,64.2ZM27.84,67.79C27.32,67.79 26.89,67.37 26.89,66.84C26.89,66.32 27.31,65.89 27.84,65.89C28.36,65.89 28.79,66.31 28.79,66.84C28.79,67.37 28.36,67.79 27.84,67.79Z" style="fill:rgb(91,69,56);fill-rule:nonzero;"/>
    </g>
    <g transform="matrix(1,0,0,1,13.165251,4.430257)">
        <path d="M36.34,75.91C36.62,75.91 36.89,75.86 37.14,75.76C37.39,75.66 37.62,75.54 37.83,75.38C38.04,75.22 38.23,75.04 38.4,74.85C38.57,74.65 38.72,74.46 38.84,74.25C38.97,74.05 39.07,73.86 39.15,73.67C39.23,73.49 39.29,73.34 39.32,73.21C39.31,73.19 39.3,73.16 39.28,73.12C39.26,73.09 39.24,73.06 39.23,73.03C39.21,73.01 39.19,73 39.18,73C38.94,73.44 38.68,73.8 38.38,74.08C38.08,74.36 37.75,74.56 37.4,74.69C37.04,74.82 36.65,74.88 36.24,74.88C35.88,74.88 35.56,74.83 35.28,74.74C34.99,74.65 34.74,74.51 34.51,74.34C34.28,74.16 34.08,73.95 33.89,73.71C33.71,73.47 33.54,73.19 33.39,72.89C33.38,72.89 33.37,72.9 33.35,72.92C33.33,72.94 33.31,72.97 33.3,73C33.28,73.03 33.28,73.05 33.27,73.07C33.41,73.46 33.58,73.82 33.79,74.17C33.99,74.51 34.22,74.81 34.48,75.07C34.74,75.33 35.02,75.54 35.34,75.69C35.64,75.82 35.98,75.9 36.34,75.91Z" style="fill:rgb(91,69,56);fill-rule:nonzero;"/>
    </g>
    <g transform="matrix(1,0,0,1,13.165251,4.430257)">
        <path d="M45.13,64.14C44.63,63.79 44.01,63.61 43.27,63.61C42.38,63.61 41.66,63.88 41.1,64.41C40.45,65 40.2,65.85 40.35,66.94C40.44,67.83 40.76,68.61 41.3,69.29C41.85,69.97 42.51,70.31 43.27,70.31C43.74,70.31 44.23,70.18 44.73,69.91C45.62,69.38 46.06,68.36 46.06,66.85C46.07,65.48 45.76,64.58 45.13,64.14ZM42.95,67.9C42.43,67.9 42,67.47 42,66.95C42,66.43 42.42,66 42.95,66C43.47,66 43.9,66.42 43.9,66.95C43.9,67.48 43.47,67.9 42.95,67.9Z" style="fill:rgb(91,69,56);fill-rule:nonzero;"/>
    </g>
    <g transform="matrix(1,0,0,1,13.165251,4.430257)">
        <path d="M51.65,53.38C53.19,52.71 53.98,47.51 55.02,42.67C58.77,34.1 67.14,27.79 66.64,19.82C59.77,6.37 50.15,5.89 46.03,4.82C40.69,3.83 35.36,3.1 30.03,3.87C26.24,4.43 21.33,8.08 16.79,8.39C12.46,9.82 11.38,11.72 10.17,13.39C8.82,16.33 8.51,19.26 9.17,22.2C10.83,27.48 13.38,32.28 14.17,38.03C15.92,41.12 16.04,46.96 20.04,50.88C32.28,45.05 42.28,49.57 51.65,53.38Z" style="fill:url(#_Linear1);fill-rule:nonzero;"/>
    </g>
    <g transform="matrix(1,0,0,1,13.165251,4.430257)">
        <path d="M51.5,53.44L50.35,52.97C41.16,49.22 31.65,45.33 19.93,50.92L19.86,50.95L19.81,50.9C17.2,48.34 16.24,45.03 15.4,42.1C14.95,40.56 14.53,39.11 13.92,38.02L13.91,37.98C13.38,34.16 12.06,30.69 10.78,27.34C10.14,25.66 9.47,23.92 8.92,22.16C8.25,19.18 8.59,16.19 9.92,13.28C10.02,13.14 10.11,13.01 10.2,12.88C11.31,11.32 12.56,9.55 16.6,8.22C19.1,8.04 21.68,6.87 24.17,5.74C26.21,4.81 28.14,3.94 29.86,3.69C34.93,2.96 39.93,3.54 45.88,4.64C46.36,4.76 46.89,4.88 47.5,5.01C52.03,5.97 60.46,7.74 66.56,19.7L66.57,19.74C66.88,24.7 63.79,29.02 60.51,33.59C58.48,36.43 56.37,39.37 54.94,42.64C54.78,43.4 54.62,44.19 54.46,44.97C53.6,49.18 52.86,52.82 51.51,53.41L51.5,53.44ZM31.86,47.91C38.52,47.91 44.54,50.37 50.44,52.78L51.5,53.21C52.72,52.61 53.48,48.88 54.29,44.94C54.45,44.16 54.61,43.37 54.78,42.59C56.23,39.28 58.34,36.33 60.38,33.48C63.63,28.94 66.7,24.66 66.4,19.78C60.33,7.94 52.29,6.25 47.48,5.23C46.86,5.1 46.33,4.99 45.85,4.86C39.93,3.77 34.94,3.19 29.9,3.92C28.21,4.17 26.3,5.04 24.27,5.95C21.76,7.09 19.17,8.26 16.65,8.44C12.7,9.75 11.47,11.48 10.38,13.02C10.29,13.15 10.2,13.27 10.11,13.4C8.8,16.25 8.47,19.2 9.13,22.12C9.68,23.87 10.34,25.6 10.99,27.28C12.27,30.63 13.6,34.1 14.13,37.94C14.75,39.04 15.17,40.5 15.62,42.04C16.45,44.92 17.4,48.18 19.93,50.7C24.16,48.69 28.11,47.91 31.86,47.91Z" style="fill:rgb(200,188,168);fill-rule:nonzero;"/>
    </g>
    <g transform="matrix(1,0,0,1,13.165251,4.430257)">
        <path d="M20.39,54.28C24.8,51.94 35.84,46.15 50.62,56.3C51.04,53.92 51.08,51.54 50.75,49.16C50.33,43.53 28.27,36.64 20.27,49.04L20.39,54.28Z" style="fill:url(#_Linear2);"/>
    </g>
    <g transform="matrix(1,0,0,1,13.165251,4.430257)">
        <path d="M50.66,56.38L50.6,56.34C44.27,51.99 37.89,50.08 31.62,50.65C26.44,51.12 22.52,53.2 20.41,54.32L20.35,54.35L20.35,54.28L20.23,49.03L20.24,49.02C22.4,45.68 25.67,43.5 29.98,42.56C33.51,41.78 37.63,41.91 41.58,42.92C46.84,44.26 50.63,46.83 50.8,49.16C51.13,51.53 51.09,53.94 50.67,56.31L50.66,56.38ZM33.79,50.46C39.35,50.46 44.99,52.39 50.59,56.23C50.99,53.89 51.03,51.51 50.7,49.17C50.53,46.91 46.68,44.31 41.54,43C37.61,42 33.5,41.87 29.98,42.64C25.7,43.58 22.44,45.74 20.3,49.05L20.42,54.2C22.55,53.07 26.45,51.02 31.6,50.55C32.34,50.49 33.07,50.46 33.79,50.46Z" style="fill:rgb(200,188,168);fill-rule:nonzero;"/>
    </g>
    <g transform="matrix(1,0,0,1,13.165251,4.430257)">
        <path d="M14.18,12.5C13.5,15.93 16.54,26.76 15.52,32.44C15,29.46 13.1,23.55 13.18,20.22C12.26,18.22 11.34,15.8 10.33,14.87C9.42,14.04 12.42,9.09 14.18,12.5Z" style="fill:url(#_Linear3);"/>
    </g>
    <g transform="matrix(1,0,0,1,13.165251,4.430257)">
        <path d="M21.11,47.36C21.1,47.35 21.1,47.35 21.1,47.34C17.1,42.66 15.45,34.6 14.06,27.81C12.96,22.42 12.02,17.82 10.2,16.37L10.19,16.36C9.96,16.06 9.83,15.71 9.78,15.34C9.69,14.7 9.85,14 10.18,13.35C10.5,12.7 10.99,12.12 11.57,11.72C11.97,11.44 12.42,11.26 12.88,11.2L12.89,11.29C12.44,11.34 12.01,11.53 11.62,11.79C11.19,12.38 10.87,12.76 10.55,13.39C9.66,15.17 11.51,15.08 12.24,16.05C14.08,17.53 14.23,22.38 15.34,27.79C16.73,34.57 17.18,42.62 21.16,47.28C21.17,47.29 21.17,47.29 21.17,47.3L21.11,47.36Z" style="fill:rgb(169,150,117);fill-rule:nonzero;"/>
    </g>
    <g transform="matrix(1,0,0,1,13.165251,4.430257)">
        <path d="M20.96,11.1C20.28,14.53 22.02,22.4 21.01,28.09C20.49,25.11 18.59,19.2 18.67,15.87C17.75,13.87 16.65,11.59 16,10.41C15.41,9.35 18.45,7.92 20.96,11.1Z" style="fill:url(#_Linear4);"/>
    </g>
    <g transform="matrix(1,0,0,1,13.165251,4.430257)">
        <path d="M19.63,9.9C18.76,9.31 18.41,9.34 17.66,9.44C17.35,9.48 17.09,9.58 16.89,9.72C16.69,9.86 16.56,10.06 16.52,10.3C16.48,10.66 16.24,10.72 16.57,11.38C18.79,14.39 20.48,19.38 20.95,24.69C21.54,31.42 20.76,38.88 25.22,44.16L25.15,44.22C20.67,38.91 20.01,31.44 19.42,24.7C18.95,19.4 18.52,14.55 16.32,11.56C15.86,10.94 15.72,10.43 15.79,10.03C15.84,9.76 15.98,9.55 16.2,9.39C16.41,9.23 16.69,9.13 17.02,9.09C17.79,8.99 18.8,9.22 19.69,9.83L19.63,9.9Z" style="fill:rgb(169,150,117);fill-rule:nonzero;"/>
    </g>
    <g transform="matrix(1,0,0,1,13.165251,4.430257)">
        <path d="M31.87,5.08C33.93,8.52 30.14,24 29.47,33.73C29.41,34.55 22.15,1.62 31.87,5.08Z" style="fill:url(#_Linear5);fill-rule:nonzero;"/>
    </g>
    <g transform="matrix(1,0,0,1,13.165251,4.430257)">
        <path d="M31,42.32C28.65,36.2 26.13,25.58 25.74,17.2C25.59,13.9 25.76,10.94 26.41,8.74C27.06,6.53 28.19,5.09 29.94,4.83C30.51,4.74 31.15,4.79 31.86,4.97L31.83,5.06C31.13,4.88 30.48,5.03 29.92,5.12C28.46,5.45 28.63,6.37 27.67,8.44C27.03,10.63 26.67,13.34 26.96,16.64C28.21,24.81 29.74,35.95 31.07,42.29L31,42.32Z" style="fill:rgb(181,165,132);fill-rule:nonzero;"/>
    </g>
    <g transform="matrix(1,0,0,1,13.165251,4.430257)">
        <path d="M37.84,41.79C37.75,41.13 37.66,40.45 37.56,39.76C36.03,28.74 34.16,15.26 40.72,5.57L40.8,5.62C38.11,12.79 37.75,26.44 37.43,30.85C37.29,32.75 37.51,36.83 37.66,39.74C37.75,40.42 37.85,41.1 37.94,41.77L37.84,41.79Z" style="fill:rgb(202,187,156);fill-rule:nonzero;"/>
    </g>
    <g transform="matrix(1,0,0,1,13.165251,4.430257)">
        <path d="M44.96,43.21C45.19,37.5 45.8,30.82 46.35,25.03C47.73,17.73 51.44,14.28 52.41,6.9L52.43,6.81C48.89,12.58 46.92,18.82 45.89,25.05C44.87,31.28 44.79,37.5 45.06,43.21L44.96,43.21Z" style="fill:url(#_Linear6);fill-rule:nonzero;"/>
    </g>
    <g transform="matrix(1,0,0,1,13.165251,4.430257)">
        <path d="M62.12,15.57C59.17,24.73 55.63,33.68 52.06,42.74C52.16,30.75 58.59,16.31 62.12,15.57Z" style="fill:url(#_Linear7);fill-rule:nonzero;"/>
    </g>
    <g transform="matrix(1,0,0,1,13.165251,4.430257)">
        <path d="M50.37,46.78C51.93,45.15 52.04,42.65 52.18,39.75C52.3,37.07 52.44,34.05 53.75,31.06C53.78,30.95 53.84,30.76 53.91,30.5C54.78,27.47 58.26,15.29 62.32,15.51L62.31,15.6C59.12,15.48 55.07,27.53 54.11,30.54C54.04,30.79 54.02,30.95 53.98,31.07L53.98,31.08C52.84,34.05 52.77,37.08 52.39,39.75C52.26,42.66 52.01,45.18 50.43,46.83L50.37,46.78Z" style="fill:rgb(169,150,117);fill-rule:nonzero;"/>
    </g>
    <g id="Mesa-de-trabajo1" serif:id="Mesa de trabajo1" transform="matrix(0.977905,0,0,0.977905,-77.254507,0)">
        <rect x="79" y="0" width="100" height="100" style="fill:none;"/>
    </g>
    <defs>
        <linearGradient id="_Linear1" x1="0" y1="0" x2="1" y2="0" gradientUnits="userSpaceOnUse" gradientTransform="matrix(57.82337,0,0,57.82337,8.83553,28.4626)"><stop offset="0" style="stop-color:rgb(249,249,236);stop-opacity:1"/><stop offset="0.42" style="stop-color:rgb(249,249,236);stop-opacity:1"/><stop offset="0.49" style="stop-color:rgb(243,241,226);stop-opacity:1"/><stop offset="0.62" style="stop-color:rgb(228,221,198);stop-opacity:1"/><stop offset="0.79" style="stop-color:rgb(204,188,154);stop-opacity:1"/><stop offset="0.8" style="stop-color:rgb(202,186,151);stop-opacity:1"/><stop offset="1" style="stop-color:rgb(186,166,133);stop-opacity:1"/></linearGradient>
        <linearGradient id="_Linear2" x1="0" y1="0" x2="1" y2="0" gradientUnits="userSpaceOnUse" gradientTransform="matrix(30.7045,0,0,30.7045,20.269,49.2016)"><stop offset="0" style="stop-color:rgb(249,249,236);stop-opacity:1"/><stop offset="0.38" style="stop-color:rgb(249,249,236);stop-opacity:1"/><stop offset="0.51" style="stop-color:rgb(245,244,229);stop-opacity:1"/><stop offset="0.71" style="stop-color:rgb(234,229,208);stop-opacity:1"/><stop offset="0.94" style="stop-color:rgb(217,204,175);stop-opacity:1"/><stop offset="1" style="stop-color:rgb(212,198,166);stop-opacity:1"/><stop offset="1" style="stop-color:rgb(212,198,166);stop-opacity:1"/></linearGradient>
        <linearGradient id="_Linear3" x1="0" y1="0" x2="1" y2="0" gradientUnits="userSpaceOnUse" gradientTransform="matrix(5.5702,0,0,5.5702,10.1621,21.8836)"><stop offset="0" style="stop-color:rgb(232,219,202);stop-opacity:1"/><stop offset="1" style="stop-color:rgb(242,236,222);stop-opacity:1"/></linearGradient>
        <linearGradient id="_Linear4" x1="0" y1="0" x2="1" y2="0" gradientUnits="userSpaceOnUse" gradientTransform="matrix(3.0578,4.4623,-4.4623,3.0578,18.402,15.8332)"><stop offset="0" style="stop-color:rgb(236,225,209);stop-opacity:1"/><stop offset="0.43" style="stop-color:rgb(238,230,217);stop-opacity:1"/><stop offset="1" style="stop-color:rgb(239,233,222);stop-opacity:1"/></linearGradient>
        <linearGradient id="_Linear5" x1="0" y1="0" x2="1" y2="0" gradientUnits="userSpaceOnUse" gradientTransform="matrix(5.6641,0,0,5.6641,26.8084,19.2871)"><stop offset="0" style="stop-color:rgb(236,225,209);stop-opacity:1"/><stop offset="1" style="stop-color:rgb(237,228,213);stop-opacity:1"/></linearGradient>
        <linearGradient id="_Linear6" x1="0" y1="0" x2="1" y2="0" gradientUnits="userSpaceOnUse" gradientTransform="matrix(-0.1467,7.4883,-7.4883,-0.1467,48.7244,18.9074)"><stop offset="0" style="stop-color:rgb(186,166,138);stop-opacity:1"/><stop offset="1" style="stop-color:rgb(199,186,160);stop-opacity:1"/></linearGradient>
        <linearGradient id="_Linear7" x1="0" y1="0" x2="1" y2="0" gradientUnits="userSpaceOnUse" gradientTransform="matrix(10.0566,0,0,10.0566,52.0623,29.1551)"><stop offset="0" style="stop-color:rgb(189,174,153);stop-opacity:1"/><stop offset="0.26" style="stop-color:rgb(191,177,156);stop-opacity:1"/><stop offset="1" style="stop-color:rgb(194,181,161);stop-opacity:1"/></linearGradient>
    </defs>
</svg>
