<?xml version="1.0" encoding="UTF-8" standalone="no"?>
<!DOCTYPE svg PUBLIC "-//W3C//DTD SVG 1.1//EN" "http://www.w3.org/Graphics/SVG/1.1/DTD/svg11.dtd">
<svg width="100%" height="100%" viewBox="0 0 720 193" version="1.1" xmlns="http://www.w3.org/2000/svg" xmlns:xlink="http://www.w3.org/1999/xlink" xml:space="preserve" xmlns:serif="http://www.serif.com/" style="fill-rule:evenodd;clip-rule:evenodd;stroke-linejoin:round;stroke-miterlimit:2;">
    <g id="Fondo" transform="matrix(1,0,0,1,-151.731287,-394.669776)">
        <path d="M588.308,555.364C585.272,559.816 582.205,563.358 575.81,568.864C572.642,571.592 572.519,571.405 567.649,574.73C562.403,578.311 552.844,582.484 544.443,584.234C534.91,586.219 531.82,585.593 508.5,585.589C445.489,585.577 445.494,585.69 442.504,585.45C440.263,585.269 438.83,585.436 433.455,584.906C423.1,583.885 401.581,581.345 382.447,567.569C375.668,562.689 373.156,560.39 366.387,551.584C360.968,544.535 358.304,535.857 357.853,534.389C354.65,523.954 354.792,518.673 354.899,508.505C354.978,501.028 357.225,491.931 357.574,490.519C359.322,483.443 359.329,483.458 361.816,476.619C361.978,476.174 364.348,469.876 366.798,465.665C371.332,457.869 371.14,457.743 376.62,450.588C378.647,447.942 380.45,445.043 387.423,438.418C387.585,438.265 391.501,434.739 394.105,432.119C397.379,428.824 397.66,429.181 404.328,424.257C407.073,422.229 418.552,414.999 422.72,412.93C440.338,404.189 454.346,400.634 468.433,398.124C479.937,396.075 490.561,395.832 496.487,395.33C499.417,395.082 519.102,395.276 579.499,395.19C584.383,395.183 639.725,395.103 640.553,395.342C640.669,395.375 641.464,395.604 641.531,396.497C641.559,396.885 639.039,405.452 637.585,409.529C636.887,411.487 628.848,437.049 628.241,439.429C628.151,439.78 627.278,443.198 626.876,443.747C625.864,445.129 625.501,444.763 612.501,444.781C491.68,444.943 491.639,444.131 479.539,445.773C469.808,447.094 456.949,451.291 448.345,457.266C446.912,458.261 443.291,459.784 436.868,466.831C429.225,475.216 426.6,482.794 426.061,484.351C425.841,484.988 422.211,492.767 422.825,505.482C423.682,523.224 438.788,530.794 442.586,532.266C457.947,538.22 465.782,537.835 492.5,537.833C500.815,537.832 596.217,537.825 596.436,537.841C596.5,537.845 597.317,538.488 597.346,538.56C597.875,539.839 593.064,548.909 588.308,555.364Z" style="fill:rgb(42,41,41);"/>
        <path d="M283.851,547.589C279.043,564.839 274.508,580.35 274.019,582.385C273.677,583.806 273.465,585.458 271.503,585.548C270.54,585.593 220.9,585.498 216.5,585.49C209.181,585.476 209.143,585.481 208.76,585.169C207.978,584.531 208.303,584.271 210.911,574.613C212.223,569.75 212.841,568.139 215.387,558.47C215.787,556.95 215.889,556.985 220.699,539.559C221.752,535.742 222.425,534.372 224.743,525.571C224.938,524.83 237.31,480.887 237.992,478.651C242.699,463.233 242.412,463.163 246.622,448.535C247.035,447.1 247.652,447.09 247.026,445.727C246.427,444.421 245.81,445.059 163.498,444.872C161.093,444.867 155.205,444.838 154.502,444.855C154.329,444.86 152.689,444.899 152.346,444.776C151.341,444.417 151.858,442.787 151.911,442.619C156.366,428.571 156.721,427.662 157.218,426.389C158.172,423.951 159.996,419.044 160.234,418.404C161.468,415.082 161.208,415.005 163.708,408.587C164.692,406.061 164.458,406.006 165.412,403.468C166.362,400.94 166.199,400.895 167.251,398.392C168.36,395.754 168.45,395.286 171.495,395.243C183.368,395.076 348.59,395.235 379.499,395.156C407.92,395.082 427.09,395.571 441.493,394.798C444.951,394.612 447.339,394.479 447.437,395.517C447.686,398.18 443.706,395.399 429.461,399.369C426.268,400.259 416.802,402.386 405.74,407.961C405.662,408 403.211,409.539 401.451,410.409C398.724,411.758 388.729,418.176 384.762,421.787C365.548,439.276 367.216,443.562 364.574,444.649C363.774,444.978 363.737,444.913 332.5,444.918C313.715,444.921 313.504,444.808 312.7,445.678C311.665,446.8 308.283,461.381 303.762,476.575C303.22,478.397 303.34,478.422 297.346,499.454C295.779,504.951 295.593,504.873 294.117,510.403C293.321,513.384 293.2,513.349 283.851,547.589Z" style="fill:rgb(0,130,202);"/>
        <path d="M630.368,580.09C627.872,580.842 614.379,585.592 593.518,586.817C587.875,587.148 576.996,586.57 572.509,587.087C572.212,587.121 569.188,587.469 568.778,587.104C568.659,586.998 568.636,585.948 568.783,585.762C569.62,584.7 570.601,586.675 584.402,579.313C587.345,577.743 592.826,574.181 597.279,570.244C598.663,569.02 603.908,563.761 605.105,562.194C606.443,560.441 606.267,560.339 607.652,558.62C617.984,545.795 625.338,520.555 628.536,510.512C629.015,509.006 640.266,470.546 641.093,469.268C642.011,467.85 642.37,468.094 652.5,468.099C673.5,468.093 694.501,468.086 715.501,468.08C725.184,468.087 835.309,468.168 836.533,468.091C837.542,468.028 837.713,467.786 838.294,468.631C838.769,469.32 838.347,469.38 835.696,475.583C832.985,481.926 824.919,498.576 819.102,512.327C818.991,512.59 817.924,515.111 817.508,515.507C816.522,516.446 816.354,516.499 800.502,516.341C789.982,516.236 746.22,516.286 741.5,516.291C727.348,516.307 702.861,516.228 699.501,516.217C691.741,516.192 689.957,516.031 689.289,517.374C688.711,518.534 689.116,518.665 683.753,532.596C682.638,535.493 677.492,545.297 672.39,551.409C663.685,561.838 659.31,564.464 653.662,568.72C650.792,570.882 640.699,576.094 636.574,577.681C633.466,578.877 633.502,578.922 630.368,580.09Z" style="fill:rgb(43,42,41);"/>
        <path d="M712.5,444.797C696.833,444.795 681.166,444.794 665.5,444.792C649.313,444.739 649.17,444.812 648.712,444.292C648.098,443.596 648.53,443.467 650.045,438.37C654.646,422.886 654.715,422.921 659.492,407.498C662.658,397.276 662.431,395.863 664.495,395.468C666.942,395 868.911,395.273 869.535,395.341C870.705,395.468 870.761,396.331 870.77,396.464C870.802,396.968 870.186,398.187 870.114,398.328C869.004,400.524 865.981,408.093 863.8,412.636C859.791,420.988 857.23,427.174 853.805,434.634C849.685,443.607 850.111,444.147 848.534,444.614C847.045,445.055 808.68,444.622 712.5,444.797Z" style="fill:rgb(46,45,45);"/>
    </g>
</svg>
